<?xml version="1.0" encoding="UTF-8"?>
<svg version="1.1" xmlns="http://www.w3.org/2000/svg" width="1024" height="1024">
<path d="M0 0 C337.92 0 675.84 0 1024 0 C1024 337.92 1024 675.84 1024 1024 C686.08 1024 348.16 1024 0 1024 C0 686.08 0 348.16 0 0 Z " fill="#E7DED2" transform="translate(0,0)"/>
<path d="M0 0 C15.09145982 10.7759445 28.79737856 25.09666975 35.30322266 42.84228516 C35.63916016 45.49462891 35.63916016 45.49462891 35.30322266 47.84228516 C33.76780041 49.81397268 32.87336388 50.73077883 30.3930378 51.21587276 C29.66787909 51.21528646 28.94272038 51.21470015 28.19558716 51.21409607 C27.36042068 51.22085358 26.52525421 51.22761108 25.66477966 51.23457336 C24.75156448 51.2268541 23.8383493 51.21913483 22.89746094 51.21118164 C21.45046059 51.21683136 21.45046059 51.21683136 19.97422791 51.22259521 C17.87569272 51.22903796 15.77712837 51.22868806 13.67859268 51.2224102 C10.34769494 51.2133083 7.01736128 51.22351733 3.68649292 51.23902893 C-5.78532999 51.27913156 -15.25711024 51.28034345 -24.72900391 51.27807617 C-30.52273229 51.2780248 -36.3161602 51.29733704 -42.10980606 51.32740974 C-45.3740161 51.33816491 -48.63763446 51.32614007 -51.90182495 51.31358337 C-70.75587772 51.34694229 -85.18590483 55.14789022 -99.57177734 68.02978516 C-112.46913131 82.16789723 -115.68735861 99.20312114 -115.14208984 117.71728516 C-114.39767891 131.24144353 -109.26281774 143.26654548 -101.02490234 154.02587891 C-99.69677734 155.84228516 -99.69677734 155.84228516 -99.07177734 158.15478516 C-100.07024827 162.44821015 -103.07596333 165.41206763 -106.69677734 167.84228516 C-110.01238268 168.42864623 -111.31021587 168.0891699 -114.16162109 166.26806641 C-115.38558594 165.22199219 -115.38558594 165.22199219 -116.63427734 164.15478516 C-117.50826172 163.41486328 -118.38224609 162.67494141 -119.28271484 161.91259766 C-120.47767578 160.88779297 -120.47767578 160.88779297 -121.69677734 159.84228516 C-122.70740234 159.07916016 -123.71802734 158.31603516 -124.75927734 157.52978516 C-137.47283473 145.89823265 -146.06586033 130.93580927 -151.69677734 114.84228516 C-152.01388672 113.94767578 -152.33099609 113.05306641 -152.65771484 112.13134766 C-161.03524884 86.50107039 -156.65070865 59.53625213 -144.82714844 35.90087891 C-141.19346245 28.91234248 -137.00611073 22.67493993 -131.69677734 16.84228516 C-130.87435547 15.93865234 -130.05193359 15.03501953 -129.20458984 14.10400391 C-95.31556485 -21.40580054 -40.71299676 -27.77856556 0 0 Z " fill="#060707" transform="translate(344.69677734375,418.15771484375)"/>
<path d="M0 0 C0.87930176 0.00612305 1.75860352 0.01224609 2.66455078 0.01855469 C12.09955535 0.24506449 19.65168644 2.73472217 27.1875 8.4375 C27.47625 7.65375 27.765 6.87 28.0625 6.0625 C29.1875 3.4375 29.1875 3.4375 31.1875 1.4375 C33.69360352 1.19458008 33.69360352 1.19458008 36.81640625 1.20703125 C37.93337891 1.20896484 39.05035156 1.21089844 40.20117188 1.21289062 C41.9578418 1.23125977 41.9578418 1.23125977 43.75 1.25 C44.92498047 1.25064453 46.09996094 1.25128906 47.31054688 1.25195312 C56.04737859 1.29737859 56.04737859 1.29737859 57.1875 2.4375 C57.29346115 5.36225989 57.33427573 8.26353018 57.33276367 11.18896484 C57.33612228 12.10778442 57.3394809 13.026604 57.34294128 13.9732666 C57.35249094 17.03167043 57.35439709 20.09001965 57.35546875 23.1484375 C57.35868104 25.27300031 57.36204509 27.3975629 57.36555481 29.52212524 C57.37155784 33.9895275 57.37339376 38.4569104 57.37280273 42.92431641 C57.37270161 48.62803941 57.38629667 54.33163653 57.40357494 60.03532982 C57.41474348 64.43133097 57.41672037 68.82730231 57.41619301 73.22331619 C57.41736801 75.32429051 57.4217627 77.42526573 57.42952538 79.52622604 C57.49197668 98.19220737 56.77757501 114.22743151 43.19921875 128.66015625 C37.11973141 134.0313538 30.01259036 138.24585733 22.1875 140.4375 C21.52363281 140.64117188 20.85976563 140.84484375 20.17578125 141.0546875 C5.32039285 144.8398301 -10.75519748 143.23118217 -24.8125 137.4375 C-27.80718261 135.60857962 -30.33558113 133.91441887 -32.8125 131.4375 C-33.41422529 125.77989904 -32.17426547 122.44009335 -29.375 117.5625 C-28.73691406 116.43070313 -28.09882813 115.29890625 -27.44140625 114.1328125 C-25.8125 111.4375 -25.8125 111.4375 -24.8125 110.4375 C-20.12929525 110.05796387 -17.20609143 110.95297456 -13 112.9375 C-4.06972759 116.54238061 6.63460514 117.23174489 15.9375 114.3125 C21.48430038 111.11242286 24.62943247 106.77020623 26.6953125 100.8046875 C27.68026287 96.06754523 27.40395321 91.24757137 27.1875 86.4375 C26.68863281 86.82421875 26.18976563 87.2109375 25.67578125 87.609375 C16.45496951 94.29736053 5.6248905 97.98994359 -5.8125 96.4375 C-18.9969801 93.62354621 -28.98618764 87.53994312 -36.8125 76.4375 C-41.41952391 67.0040701 -42.99273729 58.54413116 -43 48.1875 C-43.01224609 47.28386719 -43.02449219 46.38023437 -43.03710938 45.44921875 C-43.06585588 32.13000296 -39.26104338 21.29390405 -30.05078125 11.4765625 C-21.43570217 3.62827056 -11.52023122 -0.13649041 0 0 Z " fill="#030303" transform="translate(285.8125,482.5625)"/>
<path d="M0 0 C1.05960938 -0.00386719 2.11921875 -0.00773437 3.2109375 -0.01171875 C4.31695313 -0.00011719 5.42296875 0.01148438 6.5625 0.0234375 C8.22152344 0.00603516 8.22152344 0.00603516 9.9140625 -0.01171875 C10.97367188 -0.00785156 12.03328125 -0.00398438 13.125 0 C14.58099609 0.00507568 14.58099609 0.00507568 16.06640625 0.01025391 C19.06198197 0.47611515 19.75431398 1.00925602 21.5625 3.3984375 C21.94281673 5.8050766 21.94281673 5.8050766 21.95018005 8.71228027 C21.96008469 9.81432297 21.96998932 10.91636566 21.98019409 12.05180359 C21.97569244 13.26125137 21.9711908 14.47069916 21.96655273 15.71679688 C21.97341599 16.99013382 21.98027924 18.26347076 21.98735046 19.57539368 C22.00531462 23.06918048 22.00410764 26.56271658 21.99840808 30.05653572 C21.99532128 32.97171198 22.0014029 35.88683974 22.00744683 38.80200911 C22.02150077 45.67778006 22.01992325 52.55342679 22.00854492 59.42919922 C21.99705892 66.5269698 22.01114517 73.62436275 22.0379414 80.72208357 C22.06007731 86.81303813 22.06674069 92.90387396 22.06086498 98.99486589 C22.05748956 102.63409498 22.05994904 106.27308189 22.07711601 109.91227722 C22.09541454 113.96845534 22.08142006 118.02389538 22.06420898 122.08007812 C22.07387695 123.28952591 22.08354492 124.49897369 22.09350586 125.74507141 C22.08367172 126.84711411 22.07383759 127.9491568 22.06370544 129.08459473 C22.06339152 130.52366055 22.06339152 130.52366055 22.06307125 131.9917984 C21.5625 134.3984375 21.5625 134.3984375 19.68280125 136.20529938 C15.62178977 138.49051598 11.0486139 137.86811419 6.5 137.8359375 C5.49388672 137.85591797 4.48777344 137.87589844 3.45117188 137.89648438 C2.48630859 137.89583984 1.52144531 137.89519531 0.52734375 137.89453125 C-0.3531665 137.89638428 -1.23367676 137.8982373 -2.14086914 137.90014648 C-4.4375 137.3984375 -4.4375 137.3984375 -6.20483398 135.53930664 C-7.57914782 133.15242646 -8.06041993 131.11341402 -8.4375 128.3984375 C-9.324375 129.2853125 -10.21125 130.1721875 -11.125 131.0859375 C-19.73310258 138.33395987 -29.77191855 140.30133146 -40.703125 139.75 C-53.47123194 138.54798156 -62.09006765 132.51525559 -70.5 123.0859375 C-79.6186261 110.43752065 -82.14874294 95.14019678 -79.9296875 79.9140625 C-77.11726445 66.14288756 -70.54172072 55.23420634 -59 46.9609375 C-49.62050263 41.27199837 -39.22430399 39.97794218 -28.4375 41.3984375 C-20.7590734 43.36456781 -15.38098042 46.33922598 -9.4375 51.3984375 C-9.42870064 50.50640877 -9.42870064 50.50640877 -9.41972351 49.59635925 C-9.35586878 43.41572995 -9.27147007 37.2356252 -9.17504883 31.05541992 C-9.14176144 28.74787301 -9.11374151 26.44024393 -9.09106445 24.13256836 C-9.05758892 20.81849088 -9.00527602 17.50516905 -8.94921875 14.19140625 C-8.94282883 13.1569487 -8.9364389 12.12249115 -8.92985535 11.0566864 C-8.91006119 10.0959169 -8.89026703 9.1351474 -8.86987305 8.14526367 C-8.85876999 7.29921066 -8.84766693 6.45315765 -8.83622742 5.58146667 C-7.90525804 0.48441733 -4.64303552 0.01618588 0 0 Z " fill="#040404" transform="translate(662.4375,440.6015625)"/>
<path d="M0 0 C10.61687518 9.01221566 16.14288549 20.19663925 18 34 C18.13472784 36.05978132 18.21860921 38.12355588 18.25 40.1875 C18.27578125 41.21230469 18.3015625 42.23710938 18.328125 43.29296875 C18 46 18 46 16.8679657 47.64790344 C14.1582058 49.60931902 12.10713382 49.36015992 8.78442383 49.34057617 C7.5033223 49.34034958 6.22222076 49.34012299 4.90229797 49.33988953 C3.50387219 49.32456957 2.10544996 49.30892158 0.70703125 49.29296875 C-0.72357234 49.28737268 -2.15418169 49.28310263 -3.58479309 49.28010559 C-7.34801132 49.26865756 -11.11088156 49.23919115 -14.8739624 49.20599365 C-18.71475517 49.17529163 -22.55560423 49.1616 -26.39648438 49.14648438 C-33.93114814 49.11432106 -41.46552529 49.06312566 -49 49 C-48.55140625 50.09828125 -48.1028125 51.1965625 -47.640625 52.328125 C-47.26212402 53.2547998 -47.26212402 53.2547998 -46.87597656 54.20019531 C-44.67227026 58.72798875 -40.7990906 61.73475809 -36.1328125 63.4921875 C-27.02189054 65.66145463 -18.42819856 63.65752013 -10 60 C-9.14277344 59.41863281 -8.28554688 58.83726562 -7.40234375 58.23828125 C-5 57 -5 57 -3.01953125 57.38671875 C-0.00559479 59.79437012 2.08345334 62.68542016 4.3125 65.8125 C4.77978516 66.42931641 5.24707031 67.04613281 5.72851562 67.68164062 C7.6978606 70.41894288 8.98600856 72.3405366 9.05859375 75.76171875 C5.78559414 82.68212013 -5.16648879 85.45759033 -11.82421875 88.01953125 C-25.77238818 92.32579266 -40.71835723 90.94337875 -53.74609375 84.6796875 C-65.55661148 78.10031233 -73.02470084 68.38525021 -76.875 55.4375 C-80.12638365 40.44609037 -78.67877427 25.58836596 -70.875 12.25 C-63.58177274 1.6049917 -54.1462713 -4.91689848 -41.75 -8.3125 C-27.00611965 -11.05554751 -12.12006759 -9.05428321 0 0 Z " fill="#050404" transform="translate(818,491)"/>
<path d="M0 0 C2.69024954 2.14552959 5.24850507 4.36240215 7.7734375 6.69921875 C8.51078125 7.36824219 9.248125 8.03726562 10.0078125 8.7265625 C14.69215943 13.17317002 18.66083089 18.01635365 21.7734375 23.69921875 C21.7734375 24.35921875 21.7734375 25.01921875 21.7734375 25.69921875 C20.7418602 25.70286438 19.7102829 25.70651001 18.64744568 25.71026611 C8.86569829 25.74741019 -0.91573993 25.80539197 -10.69725132 25.88312149 C-15.7245306 25.92241914 -20.75163936 25.95469369 -25.77905273 25.97021484 C-30.64223957 25.98549911 -35.50495702 26.0201496 -40.36793327 26.06752777 C-42.21156645 26.08222133 -44.05526668 26.09025275 -45.89895821 26.0911026 C-68.30151264 26.11179033 -87.76268043 31.40855683 -104.18359375 47.6328125 C-120.02715666 64.78804292 -124.27077618 85.2596935 -123.41699219 107.87402344 C-123.02839351 113.63923362 -121.86575373 119.15719127 -120.2265625 124.69921875 C-124.50353876 120.86186201 -126.89416801 117.04918978 -129.3515625 111.88671875 C-129.85236328 110.87641602 -129.85236328 110.87641602 -130.36328125 109.84570312 C-140.87118685 88.31479851 -142.42002555 64.83150066 -135.04296875 42.04296875 C-127.03593036 19.3588086 -110.25715969 1.96473163 -89.2265625 -9.30078125 C-59.74669658 -22.51473708 -26.16167159 -18.65523555 0 0 Z " fill="#519FA2" transform="translate(340.2265625,430.30078125)"/>
<path d="M0 0 C7.62990258 5.69716235 12.44355249 13.4324332 14.359375 22.76171875 C14.46102175 24.85377101 14.50772779 26.94873172 14.52050781 29.04321289 C14.53011536 30.31455582 14.5397229 31.58589874 14.54962158 32.89576721 C14.55446808 34.27946798 14.55874728 35.66317083 14.5625 37.046875 C14.56825451 38.468867 14.5740122 39.89085898 14.57977295 41.31285095 C14.5902613 44.28938151 14.596119 47.26588522 14.59960938 50.24243164 C14.60510815 54.05807031 14.62917422 57.87335465 14.65758133 61.68888187 C14.67618821 64.6236628 14.68141212 67.55835773 14.68294525 70.49319267 C14.68597368 71.90023181 14.69400868 73.30726936 14.70713043 74.71425056 C14.72415795 76.67930179 14.72047065 78.64449965 14.71582031 80.60961914 C14.72128876 82.28695885 14.72128876 82.28695885 14.72686768 83.9981842 C14.359375 86.76171875 14.359375 86.76171875 12.98736572 88.6219635 C10.67473719 90.24103324 8.94492126 90.14993935 6.140625 90.16015625 C5.12613281 90.16402344 4.11164063 90.16789063 3.06640625 90.171875 C2.00808594 90.16027344 0.94976563 90.14867187 -0.140625 90.13671875 C-1.19894531 90.14832031 -2.25726562 90.15992188 -3.34765625 90.171875 C-4.86939453 90.16607422 -4.86939453 90.16607422 -6.421875 90.16015625 C-7.8150293 90.15508057 -7.8150293 90.15508057 -9.23632812 90.14990234 C-12.15731243 89.67829744 -12.85987791 89.08609293 -14.640625 86.76171875 C-15.01916504 84.44270325 -15.01916504 84.44270325 -15.02539062 81.68286133 C-15.03550171 80.6478096 -15.04561279 79.61275787 -15.05603027 78.54634094 C-15.05300903 77.42761093 -15.04998779 76.30888092 -15.046875 75.15625 C-15.05771118 74.00307785 -15.06854736 72.8499057 -15.07971191 71.66178894 C-15.11405199 67.9658756 -15.12957552 64.27027079 -15.140625 60.57421875 C-15.15522249 55.72626676 -15.18900962 50.87900093 -15.234375 46.03125 C-15.23135376 44.92264114 -15.22833252 43.81403229 -15.22521973 42.67182922 C-15.28615008 36.33953297 -15.83302264 31.48043524 -18.640625 25.76171875 C-24.70451724 20.8348063 -30.0678574 20.1119493 -37.640625 20.76171875 C-42.38446417 22.43084735 -44.86285134 24.59505827 -47.640625 28.76171875 C-49.33121544 32.36037518 -49.89057973 35.18258707 -49.89599609 39.14697266 C-49.90643448 40.72353134 -49.90643448 40.72353134 -49.91708374 42.3319397 C-49.91608673 43.45603241 -49.91508972 44.58012512 -49.9140625 45.73828125 C-49.93434012 48.12370271 -49.95519068 50.50911935 -49.9765625 52.89453125 C-49.99922593 56.6517342 -50.01565915 60.40874729 -50.02148438 64.16601562 C-50.03096844 67.79461849 -50.0646841 71.42236823 -50.1015625 75.05078125 C-50.09651703 76.17892242 -50.09147156 77.3070636 -50.08627319 78.46939087 C-50.09953644 79.51412567 -50.11279968 80.55886047 -50.12646484 81.63525391 C-50.1307399 83.01494858 -50.1307399 83.01494858 -50.13510132 84.42251587 C-50.640625 86.76171875 -50.640625 86.76171875 -52.52212524 88.55786133 C-55.09131097 90.01782529 -56.75867943 90.14877308 -59.703125 90.16015625 C-60.66476562 90.16402344 -61.62640625 90.16789063 -62.6171875 90.171875 C-63.61492187 90.16027344 -64.61265625 90.14867187 -65.640625 90.13671875 C-66.63835937 90.14832031 -67.63609375 90.15992188 -68.6640625 90.171875 C-70.10652344 90.16607422 -70.10652344 90.16607422 -71.578125 90.16015625 C-72.45339844 90.15677246 -73.32867187 90.15338867 -74.23046875 90.14990234 C-77.3385468 89.64931036 -78.46824763 89.0706375 -80.640625 86.76171875 C-81.03749266 83.84669215 -81.17726063 81.30732743 -81.14233398 78.390625 C-81.14773697 77.53669159 -81.15313995 76.68275818 -81.15870667 75.802948 C-81.17122817 72.97635383 -81.15468046 70.15077145 -81.13671875 67.32421875 C-81.13687366 65.36271104 -81.13836128 63.40120303 -81.14112854 61.43969727 C-81.14251407 57.32717369 -81.12992877 53.21499823 -81.10717773 49.10253906 C-81.07879272 43.82618147 -81.08152841 38.55040248 -81.09426785 33.27400208 C-81.10121675 29.22313479 -81.09344476 25.17240167 -81.08101082 21.12155151 C-81.07648865 19.17585769 -81.07616618 17.2301495 -81.08007622 15.28445435 C-81.08298071 12.56693913 -81.06651819 9.85022642 -81.04467773 7.1328125 C-81.04917938 6.32544647 -81.05368103 5.51808044 -81.05831909 4.68624878 C-80.98579721 -0.73375704 -80.98579721 -0.73375704 -79.27236938 -3.23820496 C-76.87628116 -4.7067383 -74.9613247 -4.61008515 -72.16796875 -4.6015625 C-71.10384766 -4.60091797 -70.03972656 -4.60027344 -68.94335938 -4.59960938 C-67.27756836 -4.57543945 -67.27756836 -4.57543945 -65.578125 -4.55078125 C-63.9065332 -4.55561523 -63.9065332 -4.55561523 -62.20117188 -4.56054688 C-53.90756639 -4.50522264 -53.90756639 -4.50522264 -51.640625 -2.23828125 C-51.24015056 0.08447052 -50.9009146 2.41911232 -50.640625 4.76171875 C-50.11855469 4.3028125 -49.59648437 3.84390625 -49.05859375 3.37109375 C-34.78730515 -8.52581233 -15.78614454 -10.12372313 0 0 Z " fill="#040403" transform="translate(556.640625,488.23828125)"/>
<path d="M0 0 C1.16208984 0.00322266 2.32417969 0.00644531 3.52148438 0.00976562 C4.67970703 -0.00634766 5.83792969 -0.02246094 7.03125 -0.0390625 C8.14048828 -0.03970703 9.24972656 -0.04035156 10.39257812 -0.04101562 C11.92096313 -0.04548706 11.92096313 -0.04548706 13.48022461 -0.05004883 C16.56197554 0.3906141 17.23721114 0.8724815 19.08398438 3.32226562 C19.46430111 5.71049404 19.46430111 5.71049404 19.47166443 8.59141541 C19.48156906 9.68359879 19.49147369 10.77578217 19.50167847 11.90106201 C19.49492599 13.69885101 19.49492599 13.69885101 19.48803711 15.53295898 C19.49490036 16.79493607 19.50176361 18.05691315 19.50883484 19.35713196 C19.52679959 22.8199958 19.52559168 26.28260671 19.51989245 29.74550319 C19.51680516 32.63573206 19.52288795 35.52591202 19.5289312 38.41613394 C19.54298587 45.23441376 19.54140755 52.05256831 19.5300293 58.87084961 C19.51854841 65.90611755 19.53262078 72.94100428 19.55942577 79.97622198 C19.58157461 86.01538814 19.58822199 92.05443458 19.58234936 98.09363848 C19.5789764 101.70104222 19.58141685 105.3082016 19.59860039 108.91557121 C19.61692423 112.93801936 19.60289107 116.95972471 19.58569336 120.98217773 C19.59536133 122.1786795 19.6050293 123.37518127 19.61499023 124.60794067 C19.6051561 125.70294388 19.59532196 126.79794708 19.58518982 127.9261322 C19.58498054 128.87721328 19.58477125 129.82829435 19.58455563 130.80819607 C18.93403118 134.07539069 17.65653101 135.27237461 15.08398438 137.32226562 C12.56616211 137.82397461 12.56616211 137.82397461 9.76757812 137.81835938 C8.75630859 137.81900391 7.74503906 137.81964844 6.703125 137.8203125 C5.65318359 137.80033203 4.60324219 137.78035156 3.52148438 137.75976562 C2.46767578 137.76685547 1.41386719 137.77394531 0.328125 137.78125 C-7.37639518 137.71733247 -7.37639518 137.71733247 -9.5419035 136.13192081 C-11.4181854 133.66092648 -11.29077233 132.050671 -11.29023743 128.96372986 C-11.29725174 127.85182785 -11.30426605 126.73992584 -11.31149292 125.59432983 C-11.30384918 124.37396027 -11.29620544 123.1535907 -11.28833008 121.89624023 C-11.29198074 120.61154343 -11.29563141 119.32684662 -11.2993927 118.0032196 C-11.30880547 114.47848227 -11.29937374 110.95402242 -11.28606057 107.42930675 C-11.27475462 103.74401345 -11.27885285 100.05873399 -11.2808075 96.37342834 C-11.28169063 90.18534809 -11.27060509 83.99737735 -11.25219727 77.80932617 C-11.23101995 70.64914894 -11.22752161 63.48913205 -11.23375922 56.32892984 C-11.23944804 49.44700811 -11.23381354 42.56514301 -11.22258568 35.68322945 C-11.21793423 32.7514396 -11.21706817 29.81968431 -11.21917152 26.88789177 C-11.22139982 22.79814072 -11.20696625 18.70861562 -11.19067383 14.61889648 C-11.19315125 13.39650269 -11.19562866 12.17410889 -11.19818115 10.91467285 C-11.19109634 9.80559067 -11.18401154 8.69650848 -11.17671204 7.55381775 C-11.17465917 6.5861444 -11.1726063 5.61847105 -11.17049122 4.62147427 C-10.50159155 -1.42209112 -4.70308933 0.03009539 0 0 Z " fill="#040303" transform="translate(709.916015625,440.677734375)"/>
<path d="M0 0 C1.15628906 -0.01417969 2.31257813 -0.02835937 3.50390625 -0.04296875 C6.4375 0.1875 6.4375 0.1875 8.4375 2.1875 C8.89405797 6.14798822 8.76152042 10.1412381 8.75 14.125 C8.76611328 15.23552734 8.78222656 16.34605469 8.79882812 17.49023438 C8.79947266 18.55435547 8.80011719 19.61847656 8.80078125 20.71484375 C8.80376221 21.69187256 8.80674316 22.66890137 8.80981445 23.67553711 C8.4375 26.1875 8.4375 26.1875 7.10693359 28.00854492 C4.46424566 29.87481284 1.93298002 29.52808941 -1.25 29.5625 C-7.68240692 29.9272241 -11.93005437 30.59866417 -16.5625 35.1875 C-21.17952531 42.05420833 -22.27628241 48.20711843 -22.1640625 56.33984375 C-22.17206879 57.36179337 -22.18007507 58.38374298 -22.18832397 59.43666077 C-22.21121797 62.66652213 -22.20198058 65.89510694 -22.1875 69.125 C-22.18365319 72.37964433 -22.18703835 75.63373904 -22.20809937 78.88832092 C-22.22020158 80.90491928 -22.21749815 82.92167297 -22.19839478 84.93821716 C-22.20205048 85.846689 -22.20570618 86.75516083 -22.20947266 87.69116211 C-22.20350571 88.88835121 -22.20350571 88.88835121 -22.19741821 90.10972595 C-22.6557777 92.71836732 -23.48037237 93.59639124 -25.5625 95.1875 C-29.36535053 95.82658587 -33.21199037 95.65079513 -37.0625 95.625 C-38.12082031 95.64498047 -39.17914063 95.66496094 -40.26953125 95.68554688 C-41.79126953 95.68458008 -41.79126953 95.68458008 -43.34375 95.68359375 C-44.27251953 95.68544678 -45.20128906 95.6872998 -46.15820312 95.68920898 C-48.5625 95.1875 -48.5625 95.1875 -50.1894989 93.68742371 C-52.15939551 90.10068861 -51.97266124 86.6745369 -51.93481445 82.68701172 C-51.93846512 81.83132599 -51.94211578 80.97564026 -51.94587708 80.09402466 C-51.95397741 77.26820986 -51.94037901 74.44296931 -51.92578125 71.6171875 C-51.92526268 69.65471395 -51.92578027 67.69223988 -51.92729187 65.72976685 C-51.92720218 61.61908199 -51.91677663 57.50859337 -51.89868164 53.39794922 C-51.87596473 48.12049588 -51.87545606 42.84332857 -51.88219929 37.56583977 C-51.88553486 33.5150395 -51.87891746 29.46430484 -51.86907005 25.413517 C-51.86521289 23.46699491 -51.86407196 21.52046554 -51.8656559 19.57394028 C-51.86602535 16.85888408 -51.85344134 14.14419973 -51.8371582 11.42919922 C-51.83963562 10.61980896 -51.84211304 9.8104187 -51.84466553 8.97650146 C-51.7912446 3.4162446 -51.7912446 3.4162446 -49.5625 1.1875 C-47.1640625 0.92871094 -47.1640625 0.92871094 -44.1875 0.921875 C-43.12015625 0.91929687 -42.0528125 0.91671875 -40.953125 0.9140625 C-39.27476562 0.92566406 -39.27476562 0.92566406 -37.5625 0.9375 C-36.44359375 0.92976563 -35.3246875 0.92203125 -34.171875 0.9140625 C-33.10453125 0.91664063 -32.0371875 0.91921875 -30.9375 0.921875 C-29.95523437 0.92413086 -28.97296875 0.92638672 -27.9609375 0.92871094 C-25.5625 1.1875 -25.5625 1.1875 -23.5625 3.1875 C-23.1484375 5.3515625 -23.1484375 5.3515625 -22.9375 7.8125 C-22.86273438 8.62976563 -22.78796875 9.44703125 -22.7109375 10.2890625 C-22.63746094 11.22878906 -22.63746094 11.22878906 -22.5625 12.1875 C-21.5725 10.8571875 -21.5725 10.8571875 -20.5625 9.5 C-15.090972 2.90290053 -8.44824579 0.0471969 0 0 Z " fill="#030202" transform="translate(410.5625,482.8125)"/>
<path d="M0 0 C1.01449219 -0.00386719 2.02898437 -0.00773437 3.07421875 -0.01171875 C4.13253906 -0.00011719 5.19085938 0.01148438 6.28125 0.0234375 C7.33957031 0.01183594 8.39789063 0.00023437 9.48828125 -0.01171875 C11.01001953 -0.00591797 11.01001953 -0.00591797 12.5625 0 C13.9556543 0.00507568 13.9556543 0.00507568 15.37695312 0.01025391 C17.78125 0.3984375 17.78125 0.3984375 19.40725708 1.39376831 C21.60987471 4.6074091 21.1974122 8.09848393 21.16943359 11.86132812 C21.17469055 12.72501511 21.17994751 13.58870209 21.18536377 14.4785614 C21.19858258 17.33745331 21.18981906 20.19578979 21.1796875 23.0546875 C21.18170769 25.038616 21.18461868 27.02254377 21.18838501 29.00646973 C21.19281091 33.16600611 21.18636871 37.32534933 21.17236328 41.48486328 C21.1552713 46.82173283 21.16511105 52.15814981 21.18308067 57.49500275 C21.19391129 61.59217755 21.19047548 65.68924472 21.1826973 69.78642273 C21.18069329 71.75445102 21.18316156 73.72248903 21.19013596 75.69050598 C21.19773853 78.43911701 21.18616308 81.18699088 21.16943359 83.93554688 C21.17550629 84.75226364 21.18157898 85.56898041 21.18783569 86.41044617 C21.12585467 91.89565589 21.12585467 91.89565589 19.40725708 94.40310669 C17.08117654 95.8269748 15.27734179 95.78698401 12.5625 95.796875 C11.54800781 95.80074219 10.53351563 95.80460938 9.48828125 95.80859375 C8.42996094 95.79699219 7.37164062 95.78539062 6.28125 95.7734375 C5.22292969 95.78503906 4.16460937 95.79664063 3.07421875 95.80859375 C1.55248047 95.80279297 1.55248047 95.80279297 0 95.796875 C-0.92876953 95.79349121 -1.85753906 95.79010742 -2.81445312 95.78662109 C-5.21875 95.3984375 -5.21875 95.3984375 -6.84475708 94.40310669 C-9.04737471 91.1894659 -8.6349122 87.69839107 -8.60693359 83.93554688 C-8.61219055 83.07185989 -8.61744751 82.20817291 -8.62286377 81.3183136 C-8.63608258 78.45942169 -8.62731906 75.60108521 -8.6171875 72.7421875 C-8.61920769 70.758259 -8.62211868 68.77433123 -8.62588501 66.79040527 C-8.63031091 62.63086889 -8.62386871 58.47152567 -8.60986328 54.31201172 C-8.5927713 48.97514217 -8.60261105 43.63872519 -8.62058067 38.30187225 C-8.63141129 34.20469745 -8.62797548 30.10763028 -8.6201973 26.01045227 C-8.61819329 24.04242398 -8.62066156 22.07438597 -8.62763596 20.10636902 C-8.63523853 17.35775799 -8.62366308 14.60988412 -8.60693359 11.86132812 C-8.61300629 11.04461136 -8.61907898 10.22789459 -8.62533569 9.38642883 C-8.56335467 3.90121911 -8.56335467 3.90121911 -6.84475708 1.39376831 C-4.51867654 -0.0300998 -2.71484179 0.00989099 0 0 Z " fill="#040303" transform="translate(440.21875,482.6015625)"/>
<path d="M0 0 C6.06062898 3.04564492 9.78502562 7.55016087 11.921875 13.98828125 C13.2768993 21.461039 13.61059114 29.8923095 9.58984375 36.55078125 C6.57007795 40.37643547 2.85939494 43.34527857 -1.68359375 45.1640625 C-8.87899137 46.00588858 -16.00658091 46.37055066 -22 41.859375 C-27.78345136 36.03566759 -30.74926569 30.20056442 -31.05859375 22.0390625 C-30.9758426 15.84100132 -29.34803643 11.16659523 -25.68359375 6.1640625 C-18.22621569 -0.85129124 -10.09571883 -3.14480907 0 0 Z " fill="#E5DBD1" transform="translate(641.68359375,508.8359375)"/>
<path d="M0 0 C5.67604715 3.3346777 9.60167913 8.19199815 11.625 14.4375 C12.34675165 21.23321359 12.45720267 28.53692304 8.625 34.4375 C4.01578903 39.4757068 -0.54068776 43.06798555 -7.49609375 43.73828125 C-19.88352854 43.7820531 -19.88352854 43.7820531 -24.953125 38.92578125 C-30.96790274 32.42923734 -32.98271579 26.18095207 -32.71875 17.37109375 C-31.89616454 10.35107463 -28.5816675 6.08944192 -23.25390625 1.6640625 C-16.48277267 -2.75617855 -7.39669183 -3.32067283 0 0 Z " fill="#E5DCD1" transform="translate(303.375,509.5625)"/>
<path d="M0 0 C4.3557659 2.81122602 7.44557101 6.43436928 9.08203125 11.34375 C9.84183159 18.06255588 9.53372163 23.12237243 5.51953125 28.6875 C2.27076145 32.43064782 -0.88220431 35.13017046 -5.859375 35.65234375 C-13.13691149 35.91141463 -18.33069166 35.75383687 -24.140625 31.1015625 C-28.64803662 26.64368288 -30.13024564 23.17412122 -30.35546875 16.78125 C-30.05592641 9.7081856 -27.53909901 5.35908437 -22.4453125 0.6015625 C-15.87751882 -4.80720877 -7.17051759 -3.51619076 0 0 Z " fill="#050404" transform="translate(456.91796875,433.65625)"/>
<path d="M0 0 C3.71891446 2.22189381 6.10058078 4.77587117 8.5 8.375 C8.5 9.695 8.5 11.015 8.5 12.375 C-4.18270851 13.11636918 -16.79571603 13.51309004 -29.5 13.375 C-28.97178451 9.33943369 -27.90673398 7.19787252 -25.1875 4.1875 C-24.59324219 3.51332031 -23.99898437 2.83914063 -23.38671875 2.14453125 C-17.36104225 -3.50687963 -7.28685906 -3.3374927 0 0 Z " fill="#E0D6CB" transform="translate(798.5,507.625)"/>
<path d="M0 0 C10.1226571 2.28576128 16.00699941 8.83201334 22.125 16.9375 C24 20 24 20 24 23 C-1.41 23 -26.82 23 -53 23 C-53 22.67 -53 22.34 -53 22 C-51.74759018 21.98786972 -51.74759018 21.98786972 -50.46987915 21.97549438 C-42.61194671 21.89764279 -34.75418781 21.81038107 -26.89647865 21.71247292 C-22.85647662 21.66246793 -18.81650126 21.61613852 -14.77636719 21.578125 C-10.87942462 21.54132492 -6.98270309 21.49497987 -3.08594894 21.44193649 C-1.59720094 21.42336435 -0.10840551 21.40826686 1.38041306 21.39665604 C3.46135986 21.37984131 5.54179733 21.35081943 7.62255859 21.31884766 C8.80836517 21.30552399 9.99417175 21.29220032 11.21591187 21.2784729 C14.13931882 21.28282795 14.13931882 21.28282795 16 19 C16 18.01 16 17.02 16 16 C14.35 15.34 12.7 14.68 11 14 C11 14.66 11 15.32 11 16 C10.01 15.67 9.02 15.34 8 15 C8 12.36 8 9.72 8 7 C6.35 7.99 4.7 8.98 3 10 C2.505 8.02 2.505 8.02 2 6 C1.01 6.33 0.02 6.66 -1 7 C-0.67 4.69 -0.34 2.38 0 0 Z " fill="#529DB5" transform="translate(337,432)"/>
<path d="M0 0 C0.33 0.66 0.66 1.32 1 2 C0.67 2.33 0.34 2.66 0 3 C0.99 3 1.98 3 3 3 C3.99 3 4.98 3 6 3 C5.67386719 3.65484375 5.34773437 4.3096875 5.01171875 4.984375 C-3.81692795 23.42296457 -4.80948654 44.35840266 1 64 C-2.53917973 60.68993242 -5.05130922 57.59532388 -7.3125 53.3125 C-7.82425781 52.35988281 -8.33601562 51.40726563 -8.86328125 50.42578125 C-10 48 -10 48 -10 46 C-6.125 45 -6.125 45 -5 45 C-5.02320313 43.99582031 -5.04640625 42.99164062 -5.0703125 41.95703125 C-5.21096336 33.08512414 -4.61961993 24.75336573 -3 16 C-2.16319448 10.89548635 -1.90954042 6.15619629 -2 1 C-1.34 0.67 -0.68 0.34 0 0 Z " fill="#63A193" transform="translate(219,491)"/>
<path d="M0 0 C0.66 0 1.32 0 2 0 C2.17706721 11.12649378 2.34301593 22.25309253 2.49477577 33.37996197 C2.56559338 38.54662117 2.6402384 43.71316595 2.72363281 48.87963867 C2.80397342 53.8656482 2.87425699 58.85170742 2.93757248 63.8379612 C2.96349398 65.74019404 2.99303776 67.64238108 3.02626419 69.54450035 C3.07218748 72.20891685 3.10522367 74.87320534 3.13525391 77.5378418 C3.1517952 78.32402893 3.16833649 79.11021606 3.18537903 79.92022705 C3.21757655 84.07216196 2.87670283 87.26926541 1 91 C0.67 91 0.34 91 0 91 C0 60.97 0 30.94 0 0 Z " fill="#D8D3C9" transform="translate(461,486)"/>
<path d="M0 0 C0.495 1.485 0.495 1.485 1 3 C0.401875 3.556875 -0.19625 4.11375 -0.8125 4.6875 C-3.09394233 6.90938858 -3.09394233 6.90938858 -4.5 9.6875 C-6 12 -6 12 -8.125 12.6875 C-8.74375 12.790625 -9.3625 12.89375 -10 13 C-10.33 13.66 -10.66 14.32 -11 15 C-11.99 15 -12.98 15 -14 15 C-14.226875 15.598125 -14.45375 16.19625 -14.6875 16.8125 C-16.33651464 19.56085774 -18.27359268 20.39211876 -21 22 C-21.33 22.99 -21.66 23.98 -22 25 C-22.66 25 -23.32 25 -24 25 C-24.12375 25.61875 -24.2475 26.2375 -24.375 26.875 C-25 29 -25 29 -27 31 C-27.309375 31.804375 -27.61875 32.60875 -27.9375 33.4375 C-29 36 -29 36 -30.625 37.5625 C-32.4608151 39.1502231 -32.4608151 39.1502231 -32 43 C-33.06546953 45.13093906 -34.29159719 46.36587557 -36 48 C-37.25871994 45.07257706 -36.99114188 43.97642839 -35.84765625 40.93359375 C-31.83602873 33.07712411 -27.49895175 25.94185851 -22 19 C-21.52046875 18.36707031 -21.0409375 17.73414063 -20.546875 17.08203125 C-15.01260287 10.13238493 -7.68429855 4.39102775 0 0 Z " fill="#64A297" transform="translate(243,426)"/>
<path d="M0 0 C2.125 0.375 2.125 0.375 4 1 C3.02688873 1.85642342 3.02688873 1.85642342 2.03411865 2.73014832 C-1.08144991 7.73843389 -0.57059602 12.52949349 -0.54589844 18.31762695 C-0.55623611 19.56681412 -0.56657379 20.81600128 -0.57722473 22.1030426 C-0.60163788 25.52025465 -0.60849013 28.93665157 -0.60750484 32.35389352 C-0.61063656 35.92808381 -0.63626008 39.50211162 -0.65948486 43.07621765 C-0.70002879 49.84049875 -0.72038172 56.60468349 -0.73345876 63.36906737 C-0.74933431 71.07166244 -0.78775221 78.77409364 -0.82805204 86.47659361 C-0.91042892 102.31768036 -0.96453476 118.15873457 -1 134 C-1.33 134 -1.66 134 -2 134 C-2.04667357 116.82388832 -2.08196601 99.64779636 -2.10362434 82.47163582 C-2.11394695 74.49685677 -2.12802602 66.52211707 -2.15087891 58.54736328 C-2.17078273 51.59841762 -2.18370927 44.64950045 -2.18817699 37.70052707 C-2.19078949 34.01942283 -2.19695028 30.3384001 -2.21146011 26.65732193 C-2.22750807 22.55292357 -2.22798163 18.44866789 -2.22705078 14.34423828 C-2.23424133 13.11713135 -2.24143188 11.89002441 -2.24884033 10.62573242 C-2.246091 9.51231476 -2.24334167 8.39889709 -2.24050903 7.2517395 C-2.24235262 6.2801697 -2.24419621 5.30859989 -2.24609566 4.30758858 C-2 2 -2 2 0 0 Z " fill="#15130E" transform="translate(701,441)"/>
<path d="M0 0 C0.66 0.33 1.32 0.66 2 1 C2 19.15 2 37.3 2 56 C-1.07580193 51.89893076 -1.37430068 51.47380716 -1.2487793 46.77246094 C-1.22853195 45.73168396 -1.20828461 44.69090698 -1.18742371 43.61859131 C-1.15006607 42.50179993 -1.11270844 41.38500854 -1.07421875 40.234375 C-1.04777786 39.08584045 -1.02133698 37.93730591 -0.99409485 36.75396729 C-0.90632225 33.08545011 -0.79717287 29.41792146 -0.6875 25.75 C-0.62424245 23.26305626 -0.56237637 20.77607671 -0.50195312 18.2890625 C-0.35077947 12.19220083 -0.18205112 6.09601356 0 0 Z " fill="#C5C1B9" transform="translate(540,521)"/>
<path d="M0 0 C1.625 1.6875 1.625 1.6875 3 4 C2.3125 6.4375 2.3125 6.4375 1 9 C0.62875 9.928125 0.2575 10.85625 -0.125 11.8125 C-0.41375 12.534375 -0.7025 13.25625 -1 14 C-0.01 14.33 0.98 14.66 2 15 C1.01 15 0.02 15 -1 15 C-0.62875 15.680625 -0.2575 16.36125 0.125 17.0625 C1.28826484 20.96774626 0.11813971 23.10248445 -1 27 C-1.27566968 29.63966722 -1.48427667 32.28721063 -1.625 34.9375 C-1.66367188 35.62134766 -1.70234375 36.30519531 -1.7421875 37.00976562 C-1.83522412 38.67279513 -1.91863787 40.33635847 -2 42 C-4.89039257 37.66441114 -4.34009622 33.79110337 -4.3125 28.6875 C-4.31048584 27.70160889 -4.30847168 26.71571777 -4.30639648 25.69995117 C-4.18398987 16.72615365 -2.84640649 8.53921948 0 0 Z " fill="#649587" transform="translate(205,473)"/>
<path d="M0 0 C2.64 0.66 5.28 1.32 8 2 C7.67 2.99 7.34 3.98 7 5 C7.61875 5.2475 8.2375 5.495 8.875 5.75 C11.40358627 7.23740369 11.71839004 8.43678009 13 11 C15.0335948 12.26804566 15.0335948 12.26804566 17 13 C16.67 13.66 16.34 14.32 16 15 C14.35 14.67 12.7 14.34 11 14 C11 14.66 11 15.32 11 16 C10.01 15.67 9.02 15.34 8 15 C8 12.36 8 9.72 8 7 C5.525 8.485 5.525 8.485 3 10 C2.67 8.68 2.34 7.36 2 6 C1.01 6.33 0.02 6.66 -1 7 C-0.67 4.69 -0.34 2.38 0 0 Z " fill="#459AAF" transform="translate(337,432)"/>
<path d="M0 0 C0.33 0 0.66 0 1 0 C1.05607422 1.70542969 1.05607422 1.70542969 1.11328125 3.4453125 C1.50808896 13.29089676 2.55159248 22.42195296 5 32 C1.46082027 28.68993242 -1.05130922 25.59532388 -3.3125 21.3125 C-3.82425781 20.35988281 -4.33601562 19.40726563 -4.86328125 18.42578125 C-6 16 -6 16 -6 14 C-4.0625 13.4375 -4.0625 13.4375 -2 13 C-1.67 13.33 -1.34 13.66 -1 14 C-0.67 9.38 -0.34 4.76 0 0 Z " fill="#5C8B7C" transform="translate(215,523)"/>
<path d="M0 0 C0.33 0.66 0.66 1.32 1 2 C-0.3921875 2.2165625 -0.3921875 2.2165625 -1.8125 2.4375 C-5.00725111 2.92100111 -5.00725111 2.92100111 -8 4 C-8 5.32 -8 6.64 -8 8 C-9.65 7.67 -11.3 7.34 -13 7 C-13 6.34 -13 5.68 -13 5 C-14.97536745 5.34786708 -14.97536745 5.34786708 -17 6 C-17.33 6.66 -17.66 7.32 -18 8 C-18.33 6.68 -18.66 5.36 -19 4 C-14.88004884 1.06167919 -11.70203961 0.54682428 -6.6875 0.3125 C-5.43324219 0.24675781 -4.17898438 0.18101562 -2.88671875 0.11328125 C-1.93410156 0.07589844 -0.98148437 0.03851563 0 0 Z " fill="#DBD2C7" transform="translate(416,511)"/>
<path d="M0 0 C-1.24403138 3.73209414 -3.17243898 5.30708475 -6 8 C-6.598125 8.598125 -7.19625 9.19625 -7.8125 9.8125 C-8.204375 10.204375 -8.59625 10.59625 -9 11 C-9.66 10.67 -10.32 10.34 -11 10 C-11.26554688 10.58265625 -11.53109375 11.1653125 -11.8046875 11.765625 C-13.03302996 14.06174228 -14.40314939 15.80356018 -16.125 17.75 C-16.93324219 18.67039062 -16.93324219 18.67039062 -17.7578125 19.609375 C-18.16773438 20.06828125 -18.57765625 20.5271875 -19 21 C-19 15.90128796 -15.27514112 12.69103205 -12 9 C-2.89140271 0 -2.89140271 0 0 0 Z " fill="#081317" transform="translate(247,469)"/>
<path d="M0 0 C0.66 0.33 1.32 0.66 2 1 C1.360625 1.78375 0.72125 2.5675 0.0625 3.375 C-1.98142313 5.79539281 -1.98142313 5.79539281 -3 8 C-3.99 8 -4.98 8 -6 8 C-6.226875 8.598125 -6.45375 9.19625 -6.6875 9.8125 C-8.37304841 12.62174735 -10.05002192 13.63293699 -13 15 C-13.99 14.67 -14.98 14.34 -16 14 C-14.76110404 12.51152063 -13.5084328 11.03449895 -12.25 9.5625 C-11.55390625 8.73878906 -10.8578125 7.91507812 -10.140625 7.06640625 C-7.91801618 4.92085869 -6.93640537 4.53834098 -4 4 C-1.77022004 2.02098426 -1.77022004 2.02098426 0 0 Z " fill="#559D8F" transform="translate(235,433)"/>
<path d="M0 0 C2.0622048 -0.054348 4.12482816 -0.09294961 6.1875 -0.125 C7.33605469 -0.14820313 8.48460937 -0.17140625 9.66796875 -0.1953125 C12.91740372 -0.00484152 15.08660521 0.60639873 18 2 C17.67 3.32 17.34 4.64 17 6 C16.443125 5.80664062 15.88625 5.61328125 15.3125 5.4140625 C10.24882873 3.68625575 5.20677935 2.2306933 0 1 C0 0.67 0 0.34 0 0 Z " fill="#DDD5CB" transform="translate(538,481)"/>
<path d="M0 0 C0.66 0 1.32 0 2 0 C2.47510763 1.9004305 2.94921173 3.80111811 3.41796875 5.703125 C3.79672971 7.19783269 4.19425943 8.68795059 4.61328125 10.171875 C5.63598236 13.87307901 6.14263333 16.33709033 5 20 C1.93914605 13.30883089 0.31323199 7.36095182 0 0 Z " fill="#6A9989" transform="translate(203,516)"/>
<path d="M0 0 C0.99 0 1.98 0 3 0 C1.81819916 5.02265357 0.55007718 8.0949151 -3 12 C-3.66 11.67 -4.32 11.34 -5 11 C-4.46972205 6.4926374 -2.80388725 3.5460927 0 0 Z " fill="#589E94" transform="translate(228,480)"/>
<path d="M0 0 C0.33 0 0.66 0 1 0 C1.33 5.94 1.66 11.88 2 18 C2.99 18.33 3.98 18.66 5 19 C4.8125 20.8125 4.8125 20.8125 4 23 C2.35 23.99 0.7 24.98 -1 26 C-0.67 17.42 -0.34 8.84 0 0 Z " fill="#DDD5CB" transform="translate(419,487)"/>
<path d="M0 0 C2.31 0 4.62 0 7 0 C7.33 0.99 7.66 1.98 8 3 C7.2575 3.5775 6.515 4.155 5.75 4.75 C3.33912357 6.72253526 1.15957299 8.76044282 -1 11 C-1.125 8.125 -1.125 8.125 -1 5 C-0.34 4.34 0.32 3.68 1 3 C0.67 2.01 0.34 1.02 0 0 Z " fill="#DBD5D0" transform="translate(388,485)"/>
<path d="M0 0 C0.66 0.66 1.32 1.32 2 2 C0.74397824 5.76806529 -0.51012567 6.21246507 -3.875 8.1875 C-4.75929687 8.71730469 -5.64359375 9.24710937 -6.5546875 9.79296875 C-9 11 -9 11 -12 11 C-10.56564079 9.5385774 -9.12739414 8.08096951 -7.6875 6.625 C-6.88699219 5.81289063 -6.08648437 5.00078125 -5.26171875 4.1640625 C-3 2 -3 2 0 0 Z " fill="#DDD5CA" transform="translate(253,479)"/>
<path d="M0 0 C0.33 0.66 0.66 1.32 1 2 C3.01669827 3.13350534 3.01669827 3.13350534 5 4 C4.34 4 3.68 4 3 4 C2.34 7.96 1.68 11.92 1 16 C0.34 15.67 -0.32 15.34 -1 15 C-1.02703381 13.06257659 -1.04641125 11.12504521 -1.0625 9.1875 C-1.07410156 8.10855469 -1.08570313 7.02960937 -1.09765625 5.91796875 C-1 3 -1 3 0 0 Z " fill="#CFCAC0" transform="translate(272,521)"/>
<path d="M0 0 C-0.33 1.65 -0.66 3.3 -1 5 C-2.62324086 5.22162329 -4.248721 5.42689803 -5.875 5.625 C-7.23238281 5.79902344 -7.23238281 5.79902344 -8.6171875 5.9765625 C-9.40351563 5.98429687 -10.18984375 5.99203125 -11 6 C-11.66 5.34 -12.32 4.68 -13 4 C-11.39850114 3.32694982 -9.79368971 2.66177773 -8.1875 2 C-7.29417969 1.62875 -6.40085937 1.2575 -5.48046875 0.875 C-3 0 -3 0 0 0 Z " fill="#589995" transform="translate(264,417)"/>
<path d="M0 0 C0.99 0.33 1.98 0.66 3 1 C2.525625 1.886875 2.05125 2.77375 1.5625 3.6875 C0.20262851 6.57042756 -0.54060386 8.87610623 -1 12 C-2.64826111 9.03312999 -3.44271087 6.34373475 -4 3 C-2.1875 1.4375 -2.1875 1.4375 0 0 Z " fill="#DAD4CC" transform="translate(254,600)"/>
<path d="M0 0 C-0.33 0.94875 -0.66 1.8975 -1 2.875 C-2.10159191 5.77062452 -2.10159191 5.77062452 -2 8 C-3.32 8.33 -4.64 8.66 -6 9 C-6 8.34 -6 7.68 -6 7 C-6.99 7 -7.98 7 -9 7 C-9 6.34 -9 5.68 -9 5 C-7.5390625 3.7109375 -7.5390625 3.7109375 -5.625 2.375 C-4.99851562 1.92898438 -4.37203125 1.48296875 -3.7265625 1.0234375 C-2 0 -2 0 0 0 Z " fill="#DED7CC" transform="translate(327,613)"/>
<path d="M0 0 C1.44010481 0.25662245 2.8770687 0.53090821 4.3125 0.8125 C5.11300781 0.96332031 5.91351563 1.11414063 6.73828125 1.26953125 C9.30394877 2.09816653 10.47773493 2.77115456 12 5 C11.6875 7.1875 11.6875 7.1875 11 9 C9.72689688 8.06558465 8.456612 7.12732889 7.1875 6.1875 C6.47980469 5.66542969 5.77210938 5.14335937 5.04296875 4.60546875 C3.21468607 3.16871123 1.60103312 1.68184237 0 0 Z " fill="#05151B" transform="translate(332,425)"/>
<path d="M0 0 C8.25 0 16.5 0 25 0 C23 2 23 2 19.4453125 2.16015625 C18.00501824 2.13752686 16.56485816 2.10454896 15.125 2.0625 C8.98356614 1.80969689 8.98356614 1.80969689 3 3 C3 2.34 3 1.68 3 1 C2.01 0.67 1.02 0.34 0 0 Z " fill="#EDE7DE" transform="translate(361,578)"/>
<path d="M0 0 C3.057952 1.73559438 5.63379989 3.38472619 8 6 C6.02 6.99 6.02 6.99 4 8 C0.125 5.125 0.125 5.125 -1 4 C-0.5625 1.9375 -0.5625 1.9375 0 0 Z " fill="#DDD8CB" transform="translate(595,568)"/>
<path d="M0 0 C2.31 0.33 4.62 0.66 7 1 C7.33 2.65 7.66 4.3 8 6 C7.236875 5.814375 6.47375 5.62875 5.6875 5.4375 C2.91032625 4.77180827 2.91032625 4.77180827 0 6 C0 4.02 0 2.04 0 0 Z " fill="#489EB1" transform="translate(328,426)"/>
<path d="M0 0 C0 2 0 2 -1.4609375 3.47265625 C-2.09257812 3.99730469 -2.72421875 4.52195312 -3.375 5.0625 C-4.31472656 5.85333984 -4.31472656 5.85333984 -5.2734375 6.66015625 C-7 8 -7 8 -9 9 C-9.66 8.34 -10.32 7.68 -11 7 C-9.87720538 6.01830524 -8.75168527 5.03972702 -7.625 4.0625 C-6.68527344 3.24458984 -6.68527344 3.24458984 -5.7265625 2.41015625 C-3.71547429 0.76761588 -2.62199195 0 0 0 Z " fill="#D6CFC6" transform="translate(286,509)"/>
<path d="M0 0 C1.32 1.65 2.64 3.3 4 5 C3.01 6.32 2.02 7.64 1 9 C-1.475 8.01 -1.475 8.01 -4 7 C-2.79103206 4.58206411 -2.41793589 4.20896794 0 3 C0 2.01 0 1.02 0 0 Z " fill="#DDD6CB" transform="translate(589,559)"/>
<path d="M0 0 C1.00099189 3.5034716 1.70539953 6.58920093 0 10 C-0.98020375 11.0194119 -1.97803008 12.02246356 -3 13 C-3.93045933 10.44855176 -4.08564091 9.25993522 -3.22265625 6.640625 C-2.83980469 5.85171875 -2.45695313 5.0628125 -2.0625 4.25 C-1.68222656 3.45078125 -1.30195313 2.6515625 -0.91015625 1.828125 C-0.60980469 1.22484375 -0.30945313 0.6215625 0 0 Z " fill="#669A8D" transform="translate(210,461)"/>
<path d="M0 0 C0.33 0.66 0.66 1.32 1 2 C-1.97 5.63 -4.94 9.26 -8 13 C-8 9.21775154 -6.90729614 8.2717904 -4.5625 5.375 C-3.92441406 4.57835937 -3.28632813 3.78171875 -2.62890625 2.9609375 C-1 1 -1 1 0 0 Z " fill="#0B1C1E" transform="translate(236,477)"/>
<path d="M0 0 C2.1723491 3.25852365 4.07119658 6.59244728 6 10 C5.34 10.66 4.68 11.32 4 12 C0.46209597 8.30827405 0.40884117 4.90609405 0 0 Z " fill="#D7D1C8" transform="translate(246,552)"/>
<path d="M0 0 C0 2.31 0 4.62 0 7 C-0.33 7 -0.66 7 -1 7 C-1.33 5.35 -1.66 3.7 -2 2 C-3.65 3.32 -5.3 4.64 -7 6 C-7.33 5.01 -7.66 4.02 -8 3 C-4.93882432 0.37613513 -4.26826873 0 0 0 Z " fill="#36332E" transform="translate(656,567)"/>
<path d="M0 0 C0.99 0.99 1.98 1.98 3 3 C2.67 3.99 2.34 4.98 2 6 C1.01 6.33 0.02 6.66 -1 7 C-1.66 5.02 -2.32 3.04 -3 1 C-2.01 0.67 -1.02 0.34 0 0 Z " fill="#5D9584" transform="translate(212,536)"/>
<path d="M0 0 C0.99 0.495 0.99 0.495 2 1 C1.67 1.66 1.34 2.32 1 3 C0.67 2.01 0.34 1.02 0 0 Z M-3 2 C-2.01 2 -1.02 2 0 2 C-0.33 3.32 -0.66 4.64 -1 6 C-2.32 6.33 -3.64 6.66 -5 7 C-4.125 3.125 -4.125 3.125 -3 2 Z " fill="#DFD8CC" transform="translate(573,573)"/>
<path d="M0 0 C1.65 1.32 3.3 2.64 5 4 C4.34 5.98 3.68 7.96 3 10 C1.24118433 6.71687741 0 3.76143005 0 0 Z " fill="#DFD7CD" transform="translate(819,547)"/>
<path d="M0 0 C0.99 0.495 0.99 0.495 2 1 C2.73075648 3.3140622 3.40138258 5.64828869 4 8 C2.68 8 1.36 8 0 8 C0 5.36 0 2.72 0 0 Z " fill="#D6D1C8" transform="translate(193,535)"/>
<path d="M0 0 C0.66 0.99 1.32 1.98 2 3 C0.35 4.65 -1.3 6.3 -3 8 C-3.66 7.67 -4.32 7.34 -5 7 C-3.35 4.69 -1.7 2.38 0 0 Z " fill="#D5CEC7" transform="translate(395,516)"/>
<path d="M0 0 C2 3 2 3 1.7578125 5.26171875 C1.54898438 6.06222656 1.34015625 6.86273438 1.125 7.6875 C0.92132813 8.49574219 0.71765625 9.30398438 0.5078125 10.13671875 C0.25644531 11.05904297 0.25644531 11.05904297 0 12 C-1.36398513 9.75700222 -2.05762059 8.50929167 -1.7578125 5.859375 C-1.171875 3.90625 -0.5859375 1.953125 0 0 Z " fill="#65968A" transform="translate(217,505)"/>
<path d="M0 0 C0.99 0.33 1.98 0.66 3 1 C3 2.32 3 3.64 3 5 C1.35 5.66 -0.3 6.32 -2 7 C-1.34 4.69 -0.68 2.38 0 0 Z " fill="#D2CAC1" transform="translate(233,504)"/>
<path d="M0 0 C-1.485 2.475 -1.485 2.475 -3 5 C-3.66 4.67 -4.32 4.34 -5 4 C-5 3.01 -5 2.02 -5 1 C-5.66 0.67 -6.32 0.34 -7 0 C-3.86650268 -1.04449911 -3.01031744 -0.93423645 0 0 Z " fill="#D6CDC2" transform="translate(272,472)"/>
<path d="M0 0 C0.66 0 1.32 0 2 0 C2 3 2 3 -0.5 5.6875 C-1.325 6.450625 -2.15 7.21375 -3 8 C-3.99 7.67 -4.98 7.34 -6 7 C-5.04882866 5.8274869 -4.08882991 4.66212985 -3.125 3.5 C-2.59132812 2.8503125 -2.05765625 2.200625 -1.5078125 1.53125 C-0.76144531 0.77328125 -0.76144531 0.77328125 0 0 Z " fill="#649A8F" transform="translate(225,440)"/>
<path d="M0 0 C0.66 1.32 1.32 2.64 2 4 C2.66 4 3.32 4 4 4 C4 4.66 4 5.32 4 6 C2.68 6.33 1.36 6.66 0 7 C-0.66 6.01 -1.32 5.02 -2 4 C-1.34 2.68 -0.68 1.36 0 0 Z " fill="#DDD4C9" transform="translate(336,600)"/>
<path d="M0 0 C2.4375 0.75 2.4375 0.75 5 2 C5.8125 4.125 5.8125 4.125 6 6 C5.01 6 4.02 6 3 6 C0 2.66666667 0 2.66666667 0 0 Z " fill="#DFD8CE" transform="translate(818,489)"/>
<path d="M0 0 C0.66 0 1.32 0 2 0 C3.91384609 3.50871784 4.04276246 4.81367786 3.125 8.8125 C2.75375 9.864375 2.3825 10.91625 2 12 C1.67 12 1.34 12 1 12 C0.67 8.04 0.34 4.08 0 0 Z " fill="#60A28E" transform="translate(202,488)"/>
<path d="M0 0 C2.31 0 4.62 0 7 0 C7.33 0.99 7.66 1.98 8 3 C5.6875 3.625 5.6875 3.625 3 4 C2.01 3.34 1.02 2.68 0 2 C0 1.34 0 0.68 0 0 Z " fill="#D7CFC6" transform="translate(388,485)"/>
<path d="M0 0 C1.98 0.99 1.98 0.99 4 2 C4.66 1.34 5.32 0.68 6 0 C5.25 4.75 5.25 4.75 3 7 C2.01 4.69 1.02 2.38 0 0 Z " fill="#DDD6CB" transform="translate(375,452)"/>
<path d="M0 0 C0.99 0.99 1.98 1.98 3 3 C0.525 4.485 0.525 4.485 -2 6 C-2 3 -2 3 0 0 Z " fill="#DBD2C8" transform="translate(476,482)"/>
</svg>
